<?xml version="1.0" encoding="UTF-8" standalone="no"?>
<svg
   xmlns:dc="http://purl.org/dc/elements/1.1/"
   xmlns:cc="http://creativecommons.org/ns#"
   xmlns:rdf="http://www.w3.org/1999/02/22-rdf-syntax-ns#"
   xmlns:svg="http://www.w3.org/2000/svg"
   xmlns="http://www.w3.org/2000/svg"
   xmlns:sodipodi="http://sodipodi.sourceforge.net/DTD/sodipodi-0.dtd"
   xmlns:inkscape="http://www.inkscape.org/namespaces/inkscape"
   height="32" 
   width="32"
   version="1"
   viewBox="0 0 1570 1024"
   id="svg4"
   sodipodi:docname="app.svg"
   inkscape:version="0.92.1 r">
  <metadata
     id="metadata10">
    <rdf:RDF>
      <cc:Work
         rdf:about="">
        <dc:format>image/svg+xml</dc:format>
        <dc:type
           rdf:resource="http://purl.org/dc/dcmitype/StillImage" />
      </cc:Work>
    </rdf:RDF>
  </metadata>
  <defs
     id="defs8" />
  <sodipodi:namedview
     pagecolor="#ffffff"
     bordercolor="#666666"
     borderopacity="1"
     objecttolerance="10"
     gridtolerance="10"
     guidetolerance="10"
     inkscape:pageopacity="0"
     inkscape:pageshadow="2"
     inkscape:window-width="789"
     inkscape:window-height="480"
     id="namedview6"
     showgrid="false"
     inkscape:zoom="7.375"
     inkscape:cx="-8.3389831"
     inkscape:cy="16"
     inkscape:window-x="0"
     inkscape:window-y="27"
     inkscape:window-maximized="0"
     inkscape:current-layer="svg4" />
  <path
     d="M1283.072 430.933333c0-4.266667 0.7168-8.533333 0.7168-12.8C1283.7888 187.050667 1102.2336 0 878.2848 0c-161.553067 0-300.373333 97.416533-365.568 238.250667a205.243733 205.243733 0 0 0-93.866667-23.1424c-103.424 0-189.6448 77.858133-206.097066 179.541333C88.6784 438.0672 0 558.626133 0 700.450133 0 878.933333 140.526933 1024 313.685333 1024h359.2192v-284.433067h-168.925866L785.066667 441.924267l281.088 297.301333h-168.96v284.433067h386.594133c158.4128 0 286.344533-133.358933 286.344533-296.5504 0-163.191467-128.6144-295.8336-287.061333-296.174934z"
     display="block"
     fill="#fff"
     id="path2"
     style="fill:#ffffff" />
</svg>
